# xmcd
#
# Track frame offsets:
#	150
#	25465
#	36592
#	55232
#	72920
#	93357
#
# Disc length: 2122 seconds
#
# Revision: 1
# Processed by: cddbd v1.5.2PL0 Copyright (c) Steve Scherf et al.
# Submitted via: EZCDAudioConverter 2.1.7.1
#
DISCID=51084806
DTITLE=Beck - The Information 2/2
DYEAR=2007
DGENRE=
TTITLE0=Cellphone's Dead [Ellen Allien Remix]
TTITLE1=Nausea Pirates Mix [Bumblebeez Remix]
TTITLE2=Dark Star [David Andrew Sitek Remix]
TTITLE3=Nausea [The Chap Remix]
TTITLE4=Cellphone's Dead [Jamie Lidell Limited Minutes Remix]
TTITLE5=Cellphone's Dead Villalobos Entlebuch Rmx [Ricardo Villalobos Remix]
EXTD=
EXTT0=
EXTT1=
EXTT2=
EXTT3=
EXTT4=
EXTT5=
PLAYORDER=
